<?xml version="1.0" standalone="no"?>
<!DOCTYPE svg PUBLIC "-//W3C//DTD SVG 20010904//EN"
 "http://www.w3.org/TR/2001/REC-SVG-20010904/DTD/svg10.dtd">
<svg version="1.0" xmlns="http://www.w3.org/2000/svg"
 width="372.000000pt" height="372.000000pt" viewBox="0 0 372.000000 372.000000"
 preserveAspectRatio="xMidYMid meet">

<g transform="translate(0.000000,372.000000) scale(0.100000,-0.100000)"
fill="#00d0ff" stroke="none">
<path d="M1700 3704 c-14 -2 -68 -11 -120 -20 -262 -44 -549 -182 -750 -359
-286 -251 -481 -605 -519 -945 -7 -58 -17 -121 -22 -140 -7 -23 -9 -352 -6
-965 4 -984 4 -984 51 -1073 23 -45 83 -110 126 -137 41 -26 158 -65 195 -65
14 0 33 4 43 9 9 5 35 14 58 20 53 14 140 76 175 126 16 22 38 66 49 97 19 56
20 82 20 1013 0 933 1 959 21 1058 40 192 150 372 306 497 143 116 310 177
508 187 98 5 123 3 220 -22 312 -78 536 -285 631 -584 152 -476 -155 -996
-646 -1096 -161 -33 -360 -15 -504 46 -37 16 -70 29 -72 29 -2 0 -4 -171 -4
-379 l0 -379 28 -6 c264 -53 447 -55 691 -6 277 56 537 193 751 397 282 268
444 590 491 977 32 263 -26 580 -153 844 -147 307 -435 591 -742 732 -211 97
-407 141 -636 145 -91 2 -176 1 -190 -1z"/>
<path d="M1765 2507 c-155 -52 -233 -144 -266 -312 -27 -142 71 -314 219 -383
49 -23 70 -27 147 -27 81 0 96 3 156 32 81 40 140 102 181 189 28 61 30 71 26
157 -4 76 -9 102 -32 146 -36 69 -110 142 -182 177 -67 33 -184 42 -249 21z"/>
</g>
</svg>
