<?xml version="1.0" standalone="no"?>
<!DOCTYPE svg PUBLIC "-//W3C//DTD SVG 20010904//EN"
 "http://www.w3.org/TR/2001/REC-SVG-20010904/DTD/svg10.dtd">
<svg version="1.0" xmlns="http://www.w3.org/2000/svg"
 width="256.000000pt" height="256.000000pt" viewBox="0 0 256.000000 256.000000"
 preserveAspectRatio="xMidYMid meet">

<g transform="translate(0.000000,256.000000) scale(0.100000,-0.100000)" stroke="none">
    
    <path fill="#4318FF" d="M315 2546 c-150 -36 -272 -162 -304 -314 -16 -74 -16 -1830 0 -1904
    33 -156 162 -284 317 -317 75 -16 1830 -15 1904 0 154 33 272 147 313 304 23
    89 23 1841 0 1930 -41 157 -159 271 -313 304 -78 16 -1848 14 -1917 -3z"/>

    <path fill="#FFFFFF" d="M1561 2151 c211 -54 370 -163 479 -328 161 -244 180 -517 55 -779 -146 -303 -492
    -486 -824 -434 l-81 12 0 190 0 190 23 -7 c73 -22 139 -35 187 -35 156 0 310
    103 383 257 30 63 32 76 32 173 0 101 -1 108 -37 181 -159 325 -613 328 -771
    4 -15 -30 -32 -78 -37 -106 -6 -29 -10 -262 -10 -536 0 -403 -2 -489 -14 -512
    -21 -40 -75 -84 -123 -100 -36 -12 -46 -11 -89 5 -60 23 -106 69 -122 121 -9
    29 -12 171 -12 510 0 499 5 567 50 698 82 237 319 444 573 499 94 21 250 20
    338 -3z m-88 -596 c91 -43 130 -149 88 -240 -22 -50 -69 -91 -119 -105 -54
    -14 -71 -13 -129 14 -138 65 -140 261 -3 329 58 29 105 30 163 2z"/>

</g>
</svg>